<svg width="22" height="38" viewBox="0 0 22 38" fill="none" xmlns="http://www.w3.org/2000/svg">
<path d="M20.7424 36.1925C21.0437 35.8918 21.2827 35.5347 21.4458 35.1415C21.6089 34.7484 21.6929 34.3269 21.6929 33.9012C21.6929 33.4756 21.6089 33.0541 21.4458 32.661C21.2827 32.2678 21.0437 31.9107 20.7424 31.61L8.13243 19L20.7424 6.38999C21.3501 5.78231 21.6915 4.95813 21.6915 4.09874C21.6915 3.23936 21.3501 2.41516 20.7424 1.80749C20.1348 1.19981 19.3106 0.858425 18.4512 0.858425C17.5918 0.858425 16.7676 1.19981 16.1599 1.80749L1.24243 16.725C0.941143 17.0257 0.702113 17.3828 0.539023 17.776C0.375933 18.1691 0.291988 18.5906 0.291988 19.0162C0.291988 19.4419 0.375933 19.8634 0.539023 20.2565C0.702113 20.6497 0.941142 21.0068 1.24243 21.3075L16.1599 36.225C17.3949 37.46 19.4749 37.46 20.7424 36.1925Z" fill="white"/>
</svg>
